<svg width="55" height="55" viewBox="0 0 55 55" fill="none" xmlns="http://www.w3.org/2000/svg">
<path d="M27.5 1.71875V10.3125H10.3125V27.5H1.71875C1.71875 41.7656 13.2344 53.2812 27.5 53.2812C41.7656 53.2812 53.2812 41.7656 53.2812 27.5C53.2812 13.2344 41.7656 1.71875 27.5 1.71875Z" fill="#0052B4"/>
<path d="M27.5 1.71875C23.4609 1.71875 19.6797 2.66406 16.2422 4.29688V9.45312H9.45312V16.2422H4.29688C2.66406 19.6797 1.71875 23.4609 1.71875 27.5H12.0312V14.6094L22.3438 27.5H27.5V21.0547L20.2812 12.0312H27.5V1.71875Z" fill="#EEEEEE"/>
<path d="M13.2344 12.0312L25.7812 27.5H27.5V23.2891L18.3906 12.0312H13.2344Z" fill="#D80027"/>
<path d="M27.5 4.29688H16.2422C11.0859 6.78906 6.78906 11.0859 4.29688 16.2422V27.5H9.45312V9.45312H27.5V4.29688Z" fill="#D80027"/>
<path d="M6.875 30.6797L8.76562 28.3594L8.16406 31.3672L11.1719 31.4531L8.50781 32.8281L10.3125 35.2344L7.64844 34.0312L6.875 36.9531L6.10156 34.0312L3.4375 35.2344L5.24219 32.8281L2.57812 31.4531L5.58594 31.3672L4.98438 28.3594L6.875 30.6797ZM44.6875 17.3594L46.2344 15.4688L45.7188 17.875L48.125 17.9609L45.9766 19.0781L47.4375 20.9687L45.2891 19.9375L44.6875 22.3438L44.0859 19.9375L41.9375 20.9687L43.3984 19.0781L41.25 17.9609L43.6562 17.875L43.1406 15.4688L44.6875 17.3594ZM44.6875 34.5469L46.2344 32.6562L45.7188 35.0625L48.125 35.1484L45.9766 36.2656L47.4375 38.1563L45.2891 37.125L44.6875 39.5312L44.0859 37.125L41.9375 38.1563L43.3984 36.2656L41.25 35.1484L43.6562 35.0625L43.1406 32.6562L44.6875 34.5469ZM36.0938 22.5156L37.6406 20.625L37.125 23.0312L39.5312 23.1172L37.3828 24.2344L38.8438 26.125L36.6953 25.0938L36.0938 27.5L35.4922 25.0938L33.3438 26.125L34.8047 24.2344L32.6562 23.1172L35.0625 23.0312L34.5469 20.625L36.0938 22.5156Z" fill="#EEEEEE"/>
</svg>
