<svg width="55" height="55" viewBox="0 0 55 55" fill="none" xmlns="http://www.w3.org/2000/svg">
<path d="M27.4141 53.2812C41.6527 53.2812 53.1953 41.7386 53.1953 27.5C53.1953 13.2614 41.6527 1.71875 27.4141 1.71875C13.1755 1.71875 1.63281 13.2614 1.63281 27.5C1.63281 41.7386 13.1755 53.2812 27.4141 53.2812Z" fill="#D80027"/>
<path d="M25.6955 23.8908C26.2971 22.3439 27.758 22.0861 28.5315 20.1095C28.8752 19.2501 28.2736 17.5314 28.6174 16.672C29.3908 14.6954 31.3674 15.0392 31.3674 15.0392C27.844 13.7501 23.8908 15.5548 22.6018 18.9923C21.3127 22.4298 23.1174 26.297 26.6408 27.5001C25.6955 26.4689 25.1799 25.2658 25.6955 23.8908Z" fill="#EEEEEE"/>
<path d="M26.0391 19.0781C26.4662 19.0781 26.8125 18.7318 26.8125 18.3047C26.8125 17.8775 26.4662 17.5312 26.0391 17.5312C25.6119 17.5312 25.2656 17.8775 25.2656 18.3047C25.2656 18.7318 25.6119 19.0781 26.0391 19.0781Z" fill="#D80027"/>
<path d="M22.7735 27.3281C21.4844 26.2969 21.6563 24.8359 19.9375 23.5469C19.1641 22.9453 17.3594 23.0313 16.586 22.4297C14.8672 21.1406 15.8985 19.3359 15.8985 19.3359C13.5782 22.2578 14.0938 26.4688 17.1016 28.7031C20.0235 30.9375 24.3204 30.4219 26.6407 27.5859C25.2657 28.1016 23.9766 28.1875 22.7735 27.3281Z" fill="#EEEEEE"/>
<path d="M17.875 26.125C18.3022 26.125 18.6484 25.7787 18.6484 25.3516C18.6484 24.9244 18.3022 24.5781 17.875 24.5781C17.4478 24.5781 17.1016 24.9244 17.1016 25.3516C17.1016 25.7787 17.4478 26.125 17.875 26.125Z" fill="#D80027"/>
<path d="M25.2656 31.1094C23.8906 32.0547 22.5156 31.3672 20.7109 32.5703C19.9375 33.0859 19.4219 34.8047 18.6484 35.3203C16.8438 36.5234 15.3828 35.0625 15.3828 35.0625C17.4453 38.1563 21.7422 38.9297 24.8359 36.8672C27.9297 34.8047 28.7891 30.6797 26.7266 27.5859C26.8125 29.0469 26.4688 30.25 25.2656 31.1094Z" fill="#EEEEEE"/>
<path d="M21.4844 34.6323C21.7422 34.2886 22.2578 34.2026 22.6016 34.4605C22.9453 34.7183 23.0313 35.2339 22.7734 35.5776C22.5156 35.9214 22 36.0073 21.6563 35.7495C21.3125 35.4917 21.2266 34.9761 21.4844 34.6323Z" fill="#D80027"/>
<path d="M29.6484 29.9925C30.0781 31.5394 29.0469 32.6565 29.6484 34.719C29.9063 35.5784 31.3672 36.6097 31.625 37.555C32.2266 39.6175 30.3359 40.4769 30.3359 40.4769C33.9453 39.4456 36.0078 35.7503 34.9766 32.2269C33.9453 28.7034 30.1641 26.6409 26.5547 27.6722C28.1016 27.93 29.2188 28.5315 29.6484 29.9925Z" fill="#EEEEEE"/>
<path d="M32.3125 34.5464C32.0547 34.2026 32.1406 33.687 32.4844 33.4292C32.8281 33.1714 33.3438 33.2573 33.6016 33.6011C33.8594 33.9448 33.7734 34.4605 33.4297 34.7183C33 35.062 32.5703 34.9761 32.3125 34.5464Z" fill="#D80027"/>
<path d="M29.9062 25.5234C31.625 25.6093 32.3125 26.8984 34.4609 26.9843C35.4062 26.9843 36.8672 25.9531 37.8125 25.9531C39.9609 26.039 40.2187 28.0156 40.2187 28.0156C40.3906 24.3203 37.3828 21.2265 33.6875 21.1406C29.9063 21.0546 26.8125 23.8906 26.6406 27.5859C27.4141 26.2968 28.4453 25.4374 29.9062 25.5234Z" fill="#EEEEEE"/>
<path d="M35.5783 24.4923C35.1486 24.6642 34.7189 24.4064 34.547 23.9767C34.3751 23.547 34.6329 23.1173 35.0626 22.9454C35.4923 22.7736 35.922 23.0314 36.0939 23.4611C36.2658 23.8907 36.0079 24.4064 35.5783 24.4923Z" fill="#D80027"/>
</svg>
