<svg width="55" height="55" viewBox="0 0 55 55" fill="none" xmlns="http://www.w3.org/2000/svg">
<circle cx="27.5" cy="27.5" r="24.5" fill="#EEEEEE"/>
<path d="M27.5 37.6406C33.1005 37.6406 37.6406 33.1005 37.6406 27.5C37.6406 21.8995 33.1005 17.3594 27.5 17.3594C21.8995 17.3594 17.3594 21.8995 17.3594 27.5C17.3594 33.1005 21.8995 37.6406 27.5 37.6406Z" fill="#D80027"/>
<path d="M27.5 1.71875C13.2619 1.71875 1.71875 13.2619 1.71875 27.5C1.71875 41.7381 13.2619 53.2812 27.5 53.2812C41.7381 53.2812 53.2812 41.7381 53.2812 27.5C53.2812 13.2619 41.7381 1.71875 27.5 1.71875ZM27.5 51.5625C14.2321 51.5625 3.4375 40.7679 3.4375 27.5C3.4375 14.2321 14.2321 3.4375 27.5 3.4375C40.7679 3.4375 51.5625 14.2321 51.5625 27.5C51.5625 40.7679 40.7679 51.5625 27.5 51.5625Z" fill="#EEEEEE"/>
</svg>
