<svg width="55" height="55" viewBox="0 0 55 55" fill="none" xmlns="http://www.w3.org/2000/svg">
<path d="M27.5 1.71875C18.3047 1.71875 10.2266 6.53125 5.67188 13.75H49.2422C44.7734 6.53125 36.6953 1.71875 27.5 1.71875Z" fill="#D80027"/>
<path d="M5.67188 13.75C3.17969 17.7031 1.71875 22.4297 1.71875 27.5H53.2812C53.2812 22.4297 51.8203 17.7031 49.3281 13.75H5.67188Z" fill="#0052B4"/>
<path d="M5.67188 41.25C10.2266 48.4687 18.3047 53.2812 27.5 53.2812C36.6953 53.2812 44.7734 48.4687 49.3281 41.25H5.67188Z" fill="#699635"/>
<path d="M49.3281 41.25C51.8203 37.2969 53.2812 32.5703 53.2812 27.5H1.71875C1.71875 32.5703 3.17969 37.2969 5.67188 41.25H49.3281Z" fill="#FDCE12"/>
</svg>
