<svg width="55" height="55" viewBox="0 0 55 55" fill="none" xmlns="http://www.w3.org/2000/svg">
<path d="M53.2812 27.5C53.2812 22.8594 52.0781 18.4766 49.8438 14.6953L12.6328 46.75L12.0312 48.125C12.1172 48.2109 12.2891 48.2969 12.375 48.3828L52.4219 34.1172C53.0234 32.0547 53.2812 29.8203 53.2812 27.5Z" fill="#D80027"/>
<path d="M49.8438 14.6953C46.0625 8.07813 39.4453 3.35156 31.625 2.0625L12.0312 48.125L49.8438 14.6953Z" fill="#FDCE12"/>
<path d="M27.5 1.71875C20.4531 1.71875 14.0938 4.55469 9.45312 9.10938C4.72656 13.75 1.71875 20.2812 1.71875 27.5C1.71875 35.6641 5.5 42.9688 11.5156 47.6953C11.6016 47.7812 11.6875 47.8672 11.8594 47.9531C11.9453 48.0391 12.0312 48.0391 12.1172 48.125L12.7188 46.75L31.7109 2.0625C30.25 1.80469 28.875 1.71875 27.5 1.71875Z" fill="#0052B4"/>
<path d="M12.375 48.3828C12.4609 48.3828 12.4609 48.4688 12.5469 48.4688L47.1797 44.2578C49.6719 41.3359 51.4766 37.8984 52.5078 34.1172L12.375 48.3828Z" fill="#EEEEEE"/>
<path d="M27.5 53.2812C35.3203 53.2812 42.3672 49.7578 47.0938 44.2578L12.4609 48.4688C16.7578 51.4766 21.9141 53.2812 27.5 53.2812Z" fill="#699635"/>
</svg>
