<svg width="55" height="55" viewBox="0 0 55 55" fill="none" xmlns="http://www.w3.org/2000/svg">
<path d="M27.5 53.2812C32.5703 53.2812 37.2969 51.8203 41.25 49.3281V5.67188C37.2969 3.17969 32.5703 1.71875 27.5 1.71875C22.4297 1.71875 17.7031 3.17969 13.75 5.67188V49.2422C17.7031 51.8203 22.4297 53.2812 27.5 53.2812Z" fill="#FDCE12"/>
<path d="M13.75 5.67188C6.53125 10.2266 1.71875 18.3047 1.71875 27.5C1.71875 36.6953 6.53125 44.7734 13.75 49.3281V5.67188Z" fill="#0052B4"/>
<path d="M41.25 49.3281C48.4688 44.7734 53.2812 36.6953 53.2812 27.5C53.2812 18.3047 48.4688 10.2266 41.25 5.67188V49.3281ZM21.3125 15.3828L16.1562 24.3203L21.3125 33.1719L26.4688 24.3203L21.3125 15.3828ZM33.6875 15.3828L28.5313 24.3203L33.6875 33.1719L38.8438 24.3203L33.6875 15.3828ZM22.3438 35.8359L27.5 44.7734L32.6562 35.8359L27.5 26.9844L22.3438 35.8359Z" fill="#699635"/>
</svg>
