<svg width="55" height="55" viewBox="0 0 55 55" fill="none" xmlns="http://www.w3.org/2000/svg">
<g clip-path="url(#clip0_4338_25191)">
<path d="M48.2281 45.1456C48.2397 45.1283 48.2569 45.111 48.2685 45.0938C52.0424 40.6054 54.3125 34.8206 54.3125 28.5C54.3125 22.1794 52.0424 16.3946 48.2742 11.9062C48.2627 11.889 48.2454 11.8774 48.2339 11.8602C48.1705 11.7853 48.1129 11.7161 48.0495 11.647C48.0265 11.6182 48.0034 11.5951 47.9804 11.5663L47.7441 11.2955L47.7384 11.2897C47.652 11.1918 47.5598 11.0938 47.4733 10.9959L47.4676 10.9901C47.2832 10.7942 47.0988 10.5983 46.9087 10.4082L46.9029 10.4024L46.6264 10.1259L46.6091 10.1086C46.5227 10.0222 46.4362 9.9415 46.3498 9.86084C46.321 9.83203 46.2922 9.80322 46.2576 9.77441C46.2 9.7168 46.1424 9.66494 46.0848 9.61309C46.0675 9.5958 46.0444 9.57852 46.0271 9.55547C41.4293 5.2918 35.27 2.6875 28.5 2.6875C21.73 2.6875 15.5707 5.2918 10.9671 9.55547C10.9498 9.57275 10.9268 9.59004 10.9095 9.61309C10.8519 9.66494 10.7942 9.72256 10.7366 9.78018C10.7078 9.80899 10.679 9.83779 10.6444 9.8666C10.558 9.94727 10.4716 10.0337 10.3852 10.1144L10.3679 10.1316L10.0913 10.4082L10.0855 10.414C9.89541 10.6041 9.71104 10.8 9.52666 10.9959L9.5209 11.0017C9.42871 11.0996 9.34229 11.1976 9.25586 11.2955L9.2501 11.3013C9.16943 11.3877 9.08877 11.4799 9.01387 11.5721C8.99082 11.6009 8.96777 11.6239 8.94473 11.6527C8.88135 11.7219 8.82373 11.7968 8.76035 11.8659C8.74883 11.8832 8.73154 11.8947 8.72002 11.912C4.95762 16.3946 2.6875 22.1794 2.6875 28.5C2.6875 34.8206 4.95762 40.6054 8.72578 45.0938C8.73731 45.111 8.75459 45.1283 8.76611 45.1456L8.94473 45.3588C8.96777 45.3876 8.99082 45.4106 9.01387 45.4395L9.2501 45.7103C9.2501 45.716 9.25586 45.716 9.25586 45.7218C9.34229 45.8197 9.42871 45.9177 9.5209 46.0099L9.52666 46.0156C9.71104 46.2115 9.89541 46.4074 10.0798 46.5976L10.0855 46.6033C10.1777 46.6955 10.2642 46.7877 10.3563 46.8741L10.3736 46.8914C10.5638 47.0815 10.7597 47.2659 10.9556 47.4445C15.5707 51.7082 21.73 54.3125 28.5 54.3125C35.27 54.3125 41.4293 51.7082 46.0329 47.4445C46.2292 47.2646 46.4213 47.0802 46.6091 46.8914L46.6264 46.8741C46.7186 46.7819 46.8107 46.6955 46.8972 46.6033L46.9029 46.5976C47.0931 46.4074 47.2774 46.2115 47.4561 46.0156L47.4618 46.0099C47.5482 45.9119 47.6404 45.8197 47.7269 45.7218C47.7269 45.716 47.7326 45.716 47.7326 45.7103C47.8133 45.6238 47.8939 45.5316 47.9688 45.4395C47.9919 45.4106 48.0149 45.3876 48.038 45.3588C48.1031 45.2893 48.1665 45.2182 48.2281 45.1456ZM48.4644 36.9294C47.6692 38.8077 46.6206 40.5478 45.3415 42.1265C43.901 40.8815 42.3259 39.8012 40.6457 38.9057C41.3141 36.2034 41.7289 33.2361 41.8384 30.1133H50.1064C49.9336 32.4698 49.3805 34.7572 48.4644 36.9294ZM50.1064 26.8867H41.8384C41.7289 23.7639 41.3141 20.7966 40.6457 18.0943C42.3339 17.1955 43.9068 16.1123 45.3415 14.8735C48.1219 18.2958 49.7851 22.489 50.1064 26.8867ZM36.9294 8.53564C39.2168 9.50361 41.2968 10.8403 43.129 12.5228C42.0646 13.429 40.919 14.2352 39.7065 14.9312C38.802 12.3384 37.6438 10.0855 36.2956 8.28213C36.5088 8.36279 36.722 8.44922 36.9294 8.53564ZM31.7093 48.9022C31.1792 49.3171 30.6491 49.634 30.1133 49.8472V39.1592C32.3995 39.3187 34.6477 39.8278 36.7796 40.6688C36.3014 42.0861 35.7482 43.394 35.1087 44.5752C34.1062 46.442 32.9308 47.9343 31.7093 48.9022ZM35.1087 12.4248C35.7425 13.6117 36.3014 14.9196 36.7796 16.3312C34.6477 17.1722 32.3995 17.6813 30.1133 17.8408V7.15859C30.6434 7.37178 31.1792 7.68291 31.7093 8.10352C32.9308 9.06572 34.1062 10.558 35.1087 12.4248ZM30.1133 35.9269V30.1133H38.6118C38.5196 32.66 38.2027 35.1317 37.6727 37.4768L37.6554 37.5459C35.2374 36.629 32.6946 36.0831 30.1133 35.9269ZM30.1133 26.8867V21.0731C32.7521 20.9118 35.2873 20.3529 37.6554 19.4541L37.6727 19.5232C38.2027 21.8683 38.5196 24.3343 38.6118 26.8867H30.1133ZM26.8867 30.1133V35.9269C24.2479 36.0882 21.7127 36.6471 19.3446 37.5459L19.3273 37.4768C18.7973 35.1317 18.4804 32.6657 18.3882 30.1133H26.8867ZM18.3882 26.8867C18.4804 24.34 18.7973 21.8683 19.3273 19.5232L19.3446 19.4541C21.7127 20.3529 24.2421 20.9118 26.8867 21.0731V26.8867H18.3882ZM26.8867 39.1592V49.8414C26.3566 49.6282 25.8208 49.3171 25.2907 48.8965C24.0692 47.9343 22.8881 46.4362 21.8855 44.5694C21.2518 43.3825 20.6929 42.0746 20.2146 40.663C22.358 39.8218 24.5878 39.3205 26.8867 39.1592ZM26.8867 17.8408C24.6005 17.6813 22.3523 17.1722 20.2204 16.3312C20.6986 14.9139 21.2518 13.606 21.8913 12.4248C22.8938 10.558 24.0692 9.05996 25.2965 8.09775C25.8266 7.68291 26.3566 7.36602 26.8925 7.15283V17.8408H26.8867ZM20.0706 8.53564C20.2838 8.44922 20.4912 8.36279 20.7044 8.28213C19.3562 10.0855 18.198 12.3384 17.2935 14.9312C16.0835 14.2397 14.9369 13.4331 13.871 12.5228C15.7032 10.8403 17.7832 9.50361 20.0706 8.53564ZM8.53564 20.0706C9.33076 18.1923 10.3794 16.4522 11.6585 14.8735C13.0932 16.1123 14.6661 17.1955 16.3543 18.0943C15.6859 20.7966 15.2711 23.7639 15.1616 26.8867H6.89355C7.06641 24.5302 7.61953 22.2428 8.53564 20.0706ZM6.89355 30.1133H15.1616C15.2711 33.2361 15.6859 36.2034 16.3543 38.9057C14.6741 39.8012 13.099 40.8815 11.6585 42.1265C8.87806 38.7042 7.21487 34.511 6.89355 30.1133ZM20.0706 48.4644C17.7832 47.4964 15.7032 46.1597 13.871 44.4772C14.9369 43.5669 16.0835 42.766 17.2935 42.0688C18.198 44.6616 19.3562 46.9145 20.7044 48.7179C20.4912 48.6372 20.278 48.5508 20.0706 48.4644ZM36.9294 48.4644C36.7162 48.5508 36.5088 48.6372 36.2956 48.7179C37.6438 46.9145 38.802 44.6616 39.7065 42.0688C40.9165 42.7603 42.0631 43.5669 43.129 44.4772C41.3069 46.1527 39.2097 47.5014 36.9294 48.4644Z" fill="white"/>
<g clip-path="url(#clip1_4338_25191)">
<mask id="mask0_4338_25191" style="mask-type:luminance" maskUnits="userSpaceOnUse" x="0" y="0" width="55" height="55">
<path d="M27.657 54.6284C42.5529 54.6284 54.6284 42.5529 54.6284 27.657C54.6284 12.7611 42.5529 0.685547 27.657 0.685547C12.7611 0.685547 0.685547 12.7611 0.685547 27.657C0.685547 42.5529 12.7611 54.6284 27.657 54.6284Z" fill="white"/>
</mask>
<g mask="url(#mask0_4338_25191)">
<path d="M0.685547 0.685547L1.5284 3.0034L0.685547 5.42662V7.84983L4.05698 13.5391L0.685547 19.2284V22.5998L4.05698 27.657L0.685547 32.7141V36.0855L4.05698 41.7748L0.685547 47.4641V54.6284L3.0034 53.7855L5.42662 54.6284H7.84983L13.5391 51.257L19.2284 54.6284H22.5998L27.657 51.257L32.7141 54.6284H36.0855L41.7748 51.257L47.4641 54.6284H54.6284L53.7855 52.3105L54.6284 49.8873V47.4641L51.257 41.7748L54.6284 36.0855V32.7141L51.257 27.657L54.6284 22.5998V19.2284L51.257 13.5391L54.6284 7.84983V0.685547L52.3105 1.5284L49.8873 0.685547H47.4641L41.7748 4.05698L36.0855 0.685547H32.7141L27.657 4.05698L22.5998 0.685547H19.2284L13.5391 4.05698L7.84983 0.685547H0.685547Z" fill="#EEEEEE"/>
<path d="M36.0855 0.685547V12.0641L47.4641 0.685547H36.0855ZM54.6284 7.84983L43.2498 19.2284H54.6284V7.84983ZM0.685547 19.2284H12.0641L0.685547 7.84983V19.2284ZM7.84983 0.685547L19.2284 12.0641V0.685547H7.84983ZM19.2284 54.6284V43.2498L7.84983 54.6284H19.2284ZM0.685547 47.4641L12.0641 36.0855H0.685547V47.4641ZM54.6284 36.0855H43.2498L54.6284 47.4641V36.0855ZM47.4641 54.6284L36.0855 43.2498V54.6284H47.4641Z" fill="#0052B4"/>
<path d="M0.685547 0.685547V5.42662L14.4873 19.2284H19.2284L0.685547 0.685547ZM22.5998 0.685547V22.5998H0.685547V32.7141H22.5998V54.6284H32.7141V32.7141H54.6284V22.5998H32.7141V0.685547H22.5998ZM49.8873 0.685547L36.0855 14.4873V19.2284L54.6284 0.685547H49.8873ZM19.2284 36.0855L0.685547 54.6284H5.42662L19.2284 40.8266V36.0855ZM36.0855 36.0855L54.6284 54.6284V49.8873L40.8266 36.0855H36.0855Z" fill="#D80027"/>
</g>
</g>
</g>
<defs>
<clipPath id="clip0_4338_25191">
<rect width="55" height="55" fill="white"/>
</clipPath>
<clipPath id="clip1_4338_25191">
<rect width="53.9429" height="53.9429" fill="white" transform="translate(0.685547 0.685547)"/>
</clipPath>
</defs>
</svg>
