<svg width="55" height="55" viewBox="0 0 55 55" fill="none" xmlns="http://www.w3.org/2000/svg">
<path d="M27.5 1.71875C19.5938 1.71875 12.5469 5.24219 7.82031 10.9141V27.5H52.5938V21.4844C49.8438 10.1406 39.7031 1.71875 27.5 1.71875Z" fill="#D80027"/>
<path d="M7.82031 27.5V44.0859C12.5469 49.7578 19.5938 53.2812 27.5 53.2812C39.7031 53.2812 49.8438 44.8594 52.5938 33.5156V27.5H7.82031Z" fill="#699635"/>
<path d="M7.82031 10.9141C7.04688 11.8594 6.27344 12.8906 5.58594 13.9219V17.1016H3.86719C2.49219 20.2813 1.71875 23.8047 1.71875 27.5C1.71875 31.1953 2.49219 34.7188 3.95312 37.8984H5.67188V41.0781C6.35938 42.1094 7.04688 43.1406 7.90625 44.0859L24.4062 27.5L7.82031 10.9141Z" fill="#3E4347"/>
<path d="M53.1953 29.2188V25.7812C53.1094 24.3203 52.8516 22.8594 52.5078 21.4844H7.82031V33.5156H52.5938C52.9375 32.1406 53.1094 30.6797 53.1953 29.2188Z" fill="#3E4347"/>
<path d="M5.58594 13.9219C4.98438 14.9531 4.38281 15.9844 3.86719 17.1016L14.3516 27.5L3.95312 37.8984C4.46875 39.0156 4.98437 40.0469 5.67187 41.0781L17.4453 29.2187H53.1953C53.1953 28.6172 53.2812 28.1016 53.2812 27.5C53.2812 26.8984 53.2812 26.3828 53.1953 25.7812H17.4453L5.58594 13.9219Z" fill="#FDCE12"/>
<path d="M6.27344 22.9453C5.32813 22.9453 2.32031 23.6328 2.32031 26.7266C2.32031 29.8203 5.24219 30.1641 5.84375 30.1641C6.44531 30.1641 8.59375 29.6484 8.33594 27.3281C8.33594 28.0156 7.5625 29.3906 6.01563 29.3906C4.46875 29.3906 3.4375 28.1875 3.4375 27.0703C3.4375 25.9531 4.38281 24.4062 6.01563 24.4062C7.64844 24.4062 8.85156 25.8672 8.85156 27.3281C8.85156 28.7891 7.64844 30.6797 5.84375 30.6797V32.4844C7.39063 32.4844 10.3984 31.2812 10.3984 27.5C10.4844 23.6328 7.21875 22.9453 6.27344 22.9453Z" fill="#FDCE12"/>
<path d="M6.35928 26.5546C6.35928 26.4686 6.35928 26.4686 6.35928 26.5546V26.4686C6.44522 26.3827 6.70303 26.3827 6.78897 26.2968C7.04678 26.1249 7.21866 25.953 7.39053 25.5233V25.4374C6.96085 25.3515 6.6171 25.5233 6.44522 25.7811C6.35928 25.953 6.27335 26.1249 6.18741 26.2108C6.18741 26.2968 6.10147 26.2968 6.10147 26.2968C6.01553 26.2968 6.01553 26.2108 6.01553 26.2108C5.9296 26.1249 5.84366 25.8671 5.75772 25.7811C5.58585 25.5233 5.2421 25.3515 4.81241 25.4374V25.5233C4.98428 25.8671 5.15616 26.1249 5.41397 26.2968C5.58585 26.3827 5.75772 26.3827 5.84366 26.4686L5.9296 26.5546H5.84366C5.49991 26.6405 5.2421 26.8983 5.07022 27.1561C4.89835 27.414 4.72647 27.7577 4.81241 28.1015H4.89835C5.2421 28.0155 5.49991 27.7577 5.75772 27.5858C5.9296 27.328 6.10147 27.1561 6.18741 26.8124C6.27335 27.0702 6.44522 27.328 6.6171 27.5858C6.87491 27.7577 7.04678 28.0155 7.47647 28.1015H7.56241C7.56241 27.6718 7.47647 27.414 7.3046 27.1561C6.96085 26.8983 6.70303 26.6405 6.35928 26.5546Z" fill="#FDCE12"/>
</svg>
